<?xml version="1.0" standalone="no"?>
<!DOCTYPE svg PUBLIC "-//W3C//DTD SVG 20010904//EN"
 "http://www.w3.org/TR/2001/REC-SVG-20010904/DTD/svg10.dtd">
<svg version="1.0" xmlns="http://www.w3.org/2000/svg"
 width="500.000000pt" height="500.000000pt" viewBox="0 0 500.000000 500.000000"
 preserveAspectRatio="xMidYMid meet">
<metadata>
Created by potrace 1.11, written by Peter Selinger 2001-2013
</metadata>
<g transform="translate(0.000000,500.000000) scale(0.100000,-0.100000)"
fill="#000000" stroke="none">
<path d="M0 2500 l0 -2500 2500 0 2500 0 0 2500 0 2500 -2500 0 -2500 0 0
-2500z m4024 868 c-3 -4 0 -8 7 -8 7 0 9 -3 6 -6 -3 -4 -2 -15 3 -24 7 -13 5
-21 -5 -30 -8 -7 -12 -17 -8 -22 3 -6 0 -8 -8 -6 -13 5 -89 -27 -89 -37 0 -3
18 4 39 15 29 14 42 17 47 8 4 -7 3 -8 -4 -4 -7 4 -12 2 -12 -4 0 -6 -4 -8
-10 -5 -5 3 -10 2 -10 -3 0 -8 -14 -12 -53 -13 -10 0 -15 -5 -11 -11 4 -6 1
-9 -7 -6 -13 5 -89 -27 -89 -37 0 -3 18 4 39 15 29 14 42 17 47 8 4 -7 3 -8
-4 -4 -7 4 -12 2 -12 -4 0 -6 -4 -8 -10 -5 -5 3 -10 2 -10 -3 0 -8 -14 -12
-53 -13 -10 0 -15 -5 -11 -11 4 -6 1 -9 -7 -6 -13 5 -89 -27 -89 -37 0 -3 18
4 39 15 29 14 42 17 47 8 4 -7 3 -8 -4 -4 -7 4 -12 2 -12 -4 0 -6 -4 -8 -10
-5 -5 3 -10 2 -10 -3 0 -8 -14 -12 -53 -13 -10 0 -15 -5 -11 -11 4 -6 1 -9 -7
-6 -13 5 -89 -27 -89 -37 0 -3 18 4 39 15 29 14 42 17 47 8 4 -7 3 -8 -4 -4
-7 4 -12 2 -12 -4 0 -6 -4 -8 -10 -5 -5 3 -10 2 -10 -3 0 -8 -14 -12 -53 -13
-10 0 -15 -5 -11 -11 4 -6 1 -9 -7 -6 -13 5 -89 -27 -89 -37 0 -3 18 4 39 15
29 14 42 17 47 8 4 -7 3 -8 -4 -4 -7 4 -12 2 -12 -4 0 -6 -4 -8 -10 -5 -5 3
-10 2 -10 -3 0 -8 -14 -12 -53 -13 -10 0 -15 -5 -11 -11 4 -6 1 -9 -7 -6 -13
5 -89 -27 -89 -37 0 -3 18 4 39 15 29 14 42 17 47 8 4 -7 3 -8 -4 -4 -7 4 -12
2 -12 -4 0 -6 -4 -8 -10 -5 -5 3 -10 2 -10 -3 0 -8 -14 -12 -53 -13 -10 0 -15
-5 -11 -11 4 -6 1 -9 -7 -6 -13 5 -89 -27 -89 -37 0 -3 18 4 39 15 29 14 42
17 47 8 4 -7 3 -8 -4 -4 -7 4 -12 2 -12 -4 0 -6 -4 -8 -10 -5 -5 3 -10 2 -10
-3 0 -8 -14 -12 -53 -13 -10 0 -15 -5 -11 -11 4 -6 1 -9 -7 -6 -13 5 -89 -27
-89 -37 0 -3 18 4 39 15 29 14 42 17 47 8 4 -7 3 -8 -4 -4 -7 4 -12 2 -12 -4
0 -6 -4 -8 -10 -5 -5 3 -10 2 -10 -3 0 -8 -14 -12 -53 -13 -10 0 -15 -5 -11
-11 4 -6 1 -9 -7 -6 -13 5 -89 -27 -89 -37 0 -3 18 4 39 15 29 14 42 17 47 8
4 -7 3 -8 -4 -4 -7 4 -12 2 -12 -4 0 -6 -4 -8 -10 -5 -5 3 -10 2 -10 -3 0 -5
-6 -9 -12 -10 -7 -1 -24 -3 -38 -4 -26 -3 -110 -44 -110 -54 0 -3 21 6 47 20
25 15 48 24 51 21 3 -3 0 -5 -7 -5 -7 0 -9 -5 -5 -12 4 -7 3 -8 -4 -4 -7 4
-12 2 -12 -4 0 -6 -4 -8 -10 -5 -5 3 -10 2 -10 -3 0 -5 -6 -9 -12 -10 -7 -1
-24 -3 -38 -4 -26 -3 -110 -44 -110 -54 0 -3 21 6 47 20 25 15 48 24 51 21 3
-3 0 -5 -7 -5 -7 0 -9 -5 -5 -12 4 -7 3 -8 -4 -4 -7 4 -12 2 -12 -4 0 -6 -4
-8 -10 -5 -5 3 -10 2 -10 -3 0 -5 -6 -9 -12 -10 -7 -1 -24 -3 -38 -4 -26 -3
-110 -44 -110 -54 0 -3 21 6 47 20 25 15 48 24 51 21 3 -3 0 -5 -7 -5 -7 0 -9
-5 -5 -12 4 -7 3 -8 -4 -4 -7 4 -12 2 -12 -4 0 -6 -4 -8 -10 -5 -5 3 -10 2
-10 -3 0 -5 -6 -9 -12 -10 -7 -1 -24 -3 -38 -4 -26 -3 -110 -44 -110 -54 0 -3
21 6 47 20 25 15 48 24 51 21 3 -3 0 -5 -7 -5 -7 0 -9 -5 -5 -12 4 -7 3 -8 -4
-4 -7 4 -12 2 -12 -4 0 -6 -4 -8 -10 -5 -5 3 -10 2 -10 -3 0 -5 -6 -9 -12 -10
-7 -1 -24 -3 -38 -4 -26 -3 -110 -44 -110 -54 0 -3 21 6 47 20 25 15 48 24 51
21 3 -3 0 -5 -7 -5 -7 0 -9 -5 -5 -12 4 -7 3 -8 -4 -4 -7 4 -12 2 -12 -4 0 -6
-4 -8 -10 -5 -5 3 -10 2 -10 -3 0 -5 -6 -9 -12 -10 -7 -1 -24 -3 -38 -4 -26
-3 -110 -44 -110 -54 0 -3 21 6 47 20 25 15 48 24 51 21 3 -3 0 -5 -7 -5 -7 0
-9 -5 -5 -12 4 -7 3 -8 -4 -4 -7 4 -12 2 -12 -4 0 -6 -4 -8 -10 -5 -5 3 -10 2
-10 -3 0 -5 -6 -9 -12 -10 -7 -1 -24 -3 -38 -4 -26 -3 -110 -44 -110 -54 0 -3
21 6 47 20 25 15 48 24 51 21 3 -3 0 -5 -7 -5 -7 0 -9 -5 -5 -12 4 -7 3 -8 -4
-4 -7 4 -12 2 -12 -4 0 -6 -4 -8 -10 -5 -5 3 -10 2 -10 -3 0 -8 -14 -12 -53
-13 -19 0 -90 -39 -72 -39 6 0 21 7 33 16 13 9 26 13 29 10 4 -3 1 -6 -6 -6
-7 0 -9 -5 -5 -12 4 -7 3 -8 -4 -4 -7 4 -12 3 -12 -1 0 -5 -15 -9 -34 -10 -29
0 -138 -53 -111 -53 6 0 21 7 33 16 13 9 26 13 29 10 4 -3 1 -6 -6 -6 -7 0 -9
-5 -5 -12 4 -7 3 -8 -4 -4 -7 4 -12 3 -12 -1 0 -5 -15 -9 -34 -10 -29 0 -138
-53 -111 -53 6 0 21 7 33 16 13 9 26 13 29 10 4 -3 1 -6 -6 -6 -7 0 -9 -5 -5
-12 4 -7 3 -8 -4 -4 -7 4 -12 3 -12 -2 0 -5 -10 -9 -22 -9 -42 -1 -49 -3 -42
-14 4 -7 1 -10 -7 -7 -13 5 -89 -27 -89 -37 0 -3 18 4 39 15 29 14 42 17 47 8
4 -7 3 -8 -4 -4 -7 4 -12 2 -12 -4 0 -6 -4 -8 -10 -5 -5 3 -10 2 -10 -3 0 -8
-14 -12 -53 -13 -10 0 -15 -5 -11 -11 4 -6 1 -9 -7 -6 -13 5 -89 -27 -89 -37
0 -3 18 4 39 15 29 14 42 17 47 8 4 -7 3 -8 -4 -4 -7 4 -12 2 -12 -4 0 -6 -5
-8 -10 -5 -5 3 -10 2 -10 -3 0 -8 -14 -12 -53 -13 -10 0 -15 -5 -11 -11 4 -6
1 -9 -7 -6 -13 5 -89 -27 -89 -37 0 -3 18 4 39 15 29 14 42 17 47 8 4 -7 3 -8
-4 -4 -7 4 -12 2 -12 -4 0 -6 -4 -8 -10 -5 -5 3 -10 2 -10 -3 0 -8 -14 -12
-53 -13 -10 0 -15 -5 -11 -11 4 -6 1 -9 -7 -6 -13 5 -89 -27 -89 -37 0 -3 18
4 39 15 29 14 42 17 47 8 4 -7 3 -8 -4 -4 -7 4 -12 2 -12 -4 0 -6 -4 -8 -10
-5 -5 3 -10 2 -10 -3 0 -8 -14 -12 -53 -13 -10 0 -15 -5 -11 -11 4 -6 1 -9 -7
-6 -13 5 -89 -27 -89 -37 0 -3 18 4 39 15 29 14 42 17 47 8 4 -7 3 -8 -4 -4
-7 4 -12 2 -12 -4 0 -6 -4 -8 -10 -5 -5 3 -10 2 -10 -3 0 -8 -14 -12 -53 -13
-10 0 -15 -5 -11 -11 4 -6 1 -9 -7 -6 -13 5 -89 -27 -89 -37 0 -3 18 4 39 15
29 14 42 17 47 8 4 -7 3 -8 -4 -4 -7 4 -12 2 -12 -4 0 -6 -4 -8 -10 -5 -5 3
-10 2 -10 -3 0 -8 -14 -12 -53 -13 -10 0 -15 -5 -11 -11 4 -6 1 -9 -7 -6 -13
5 -89 -27 -89 -37 0 -3 18 4 39 15 29 14 42 17 47 8 4 -7 3 -8 -4 -4 -7 4 -12
2 -12 -4 0 -6 -4 -8 -10 -5 -5 3 -10 2 -10 -3 0 -8 -14 -12 -53 -13 -10 0 -15
-5 -11 -11 4 -6 1 -9 -7 -6 -13 5 -89 -27 -89 -37 0 -3 18 4 39 15 29 14 42
17 47 8 4 -7 3 -8 -4 -4 -7 4 -12 2 -12 -4 0 -6 -4 -8 -10 -5 -5 3 -10 2 -10
-3 0 -12 -34 -16 -87 -11 -17 2 -29 7 -27 11 3 4 1 8 -4 8 -5 0 -8 15 -7 33 1
19 6 31 13 29 7 -1 12 2 12 6 0 5 6 9 13 10 6 1 23 3 37 4 26 3 110 44 110 54
0 3 -21 -6 -47 -20 -25 -15 -48 -24 -51 -21 -3 3 0 5 7 5 7 0 9 5 5 12 -4 7
-3 8 4 4 7 -4 12 -2 12 4 0 6 5 8 10 5 6 -3 10 -2 10 3 0 5 6 9 13 10 6 1 23
3 37 4 26 3 110 44 110 54 0 3 -21 -6 -47 -20 -25 -15 -48 -24 -51 -21 -3 3 0
5 7 5 7 0 9 5 5 12 -4 7 -3 8 4 4 7 -4 12 -2 12 4 0 6 5 8 10 5 6 -3 10 -2 10
3 0 5 6 9 13 10 6 1 23 3 37 4 26 3 110 44 110 54 0 3 -21 -6 -47 -20 -25 -15
-48 -24 -51 -21 -3 3 0 5 7 5 7 0 9 5 5 12 -4 7 -3 8 4 4 7 -4 12 -2 12 4 0 6
5 8 10 5 6 -3 10 -2 10 3 0 5 6 9 13 10 6 1 23 3 37 4 26 3 110 44 110 54 0 3
-21 -6 -47 -20 -25 -15 -48 -24 -51 -21 -3 3 0 5 7 5 7 0 9 5 5 12 -4 7 -3 8
4 4 7 -4 12 -2 12 4 0 6 5 8 10 5 6 -3 10 -2 10 3 0 5 6 9 13 10 6 1 23 3 37
4 26 3 110 44 110 54 0 3 -21 -6 -47 -20 -25 -15 -48 -24 -51 -21 -3 3 0 5 7
5 7 0 9 5 5 12 -4 7 -3 8 4 4 7 -4 12 -2 12 4 0 6 4 8 10 5 5 -3 10 -2 10 3 0
5 6 9 13 10 6 1 23 3 37 4 26 3 110 44 110 54 0 3 -21 -6 -47 -20 -25 -15 -48
-24 -51 -21 -3 3 0 5 7 5 7 0 9 5 5 12 -4 7 -3 8 4 4 7 -4 12 -2 12 4 0 6 5 8
10 5 6 -3 10 -2 10 3 0 8 14 12 53 13 19 0 90 39 72 39 -6 0 -21 -7 -33 -16
-13 -9 -26 -13 -29 -10 -4 3 -1 6 6 6 7 0 9 5 5 12 -4 7 -3 8 4 4 7 -4 12 -3
12 1 0 5 15 9 34 10 29 0 138 53 111 53 -6 0 -21 -7 -33 -16 -13 -9 -26 -13
-29 -10 -4 3 -1 6 6 6 7 0 9 5 5 12 -4 7 -3 8 4 4 7 -4 12 -3 12 1 0 5 15 9
34 10 29 0 126 47 126 60 0 3 -16 -5 -36 -16 -20 -12 -39 -19 -42 -16 -3 3 0
5 7 5 7 0 9 5 5 12 -4 7 -3 8 4 4 7 -4 12 -3 12 2 0 8 14 12 53 13 10 0 15 5
11 11 -4 6 -1 9 7 6 13 -5 89 27 89 37 0 3 -18 -4 -39 -15 -29 -14 -42 -17
-47 -8 -4 7 -3 8 4 4 7 -4 12 -2 12 4 0 6 5 8 10 5 6 -3 10 -2 10 3 0 8 14 12
53 13 10 0 15 5 11 11 -4 6 -1 9 7 6 13 -5 89 27 89 37 0 3 -18 -4 -39 -15
-29 -14 -42 -17 -47 -8 -4 7 -3 8 4 4 7 -4 12 -2 12 4 0 6 5 8 10 5 6 -3 10
-2 10 3 0 8 14 12 53 13 10 0 15 5 11 11 -4 6 -1 9 7 6 13 -5 89 27 89 37 0 3
-18 -4 -39 -15 -29 -14 -42 -17 -47 -8 -4 7 -3 8 4 4 7 -4 12 -2 12 4 0 6 5 8
10 5 6 -3 10 -2 10 3 0 8 14 12 53 13 10 0 15 5 11 11 -4 6 -1 9 7 6 13 -5 89
27 89 37 0 3 -18 -4 -39 -15 -29 -14 -42 -17 -47 -8 -4 7 -3 8 4 4 7 -4 12 -2
12 4 0 6 5 8 10 5 6 -3 10 -2 10 3 0 8 14 12 53 13 10 0 15 5 11 11 -4 6 -1 9
7 6 13 -5 89 27 89 37 0 3 -18 -4 -39 -15 -29 -14 -42 -17 -47 -8 -4 7 -3 8 4
4 7 -4 12 -2 12 4 0 6 4 8 10 5 6 -3 10 -2 10 3 0 8 14 12 53 13 10 0 15 5 11
11 -4 6 -1 9 7 6 13 -5 89 27 89 37 0 3 -18 -4 -39 -15 -29 -14 -42 -17 -47
-8 -4 7 -3 8 4 4 7 -4 12 -2 12 4 0 6 5 8 10 5 6 -3 10 -2 10 3 0 8 14 12 53
13 10 0 15 5 11 11 -4 6 -1 9 7 6 13 -5 89 27 89 37 0 3 -18 -4 -39 -15 -29
-14 -42 -17 -47 -8 -4 7 -3 8 4 4 7 -4 12 -2 12 4 0 6 5 8 10 5 6 -3 10 -2 10
3 0 8 14 12 53 13 10 0 15 5 11 11 -4 6 -1 9 7 6 13 -5 89 27 89 37 0 3 -18
-4 -39 -15 -29 -14 -42 -17 -47 -8 -4 7 -3 8 4 4 7 -4 12 -2 12 4 0 6 5 8 10
5 6 -3 10 -2 10 3 0 8 14 12 53 13 10 0 15 5 11 11 -4 6 -1 9 7 6 13 -5 89 27
89 37 0 3 -18 -4 -39 -15 -29 -14 -42 -17 -47 -8 -4 7 -3 8 4 4 7 -4 12 -2 12
4 0 6 5 8 10 5 6 -3 10 -2 10 3 0 8 14 12 53 13 10 0 15 5 11 11 -4 6 -1 9 7
6 13 -5 89 27 89 37 0 3 -18 -4 -39 -15 -29 -14 -42 -17 -47 -8 -4 7 -3 8 4 4
7 -4 12 -2 12 4 0 6 5 8 10 5 6 -3 10 -2 10 3 0 5 6 9 13 10 6 1 23 3 37 4 26
3 110 44 110 54 0 3 -21 -6 -47 -20 -25 -15 -48 -24 -51 -21 -3 3 0 5 7 5 7 0
9 5 5 12 -4 7 -3 8 4 4 7 -4 12 -2 12 4 0 6 5 8 10 5 6 -3 10 -2 10 3 0 5 6 9
13 10 6 1 23 3 37 4 26 3 110 44 110 54 0 3 -21 -6 -47 -20 -25 -15 -48 -24
-51 -21 -3 3 0 5 7 5 7 0 9 5 5 12 -4 7 -3 8 4 4 7 -4 12 -2 12 4 0 6 5 8 10
5 6 -3 10 -2 10 3 0 5 6 9 13 10 6 1 23 3 37 4 26 3 110 44 110 54 0 3 -21 -6
-47 -20 -25 -15 -48 -24 -51 -21 -3 3 0 5 7 5 7 0 9 5 5 12 -4 7 -3 8 4 4 7
-4 12 -2 12 4 0 6 5 8 10 5 6 -3 10 -2 10 3 0 5 6 9 13 10 6 1 23 3 37 4 26 3
110 44 110 54 0 3 -21 -6 -47 -20 -25 -15 -48 -24 -51 -21 -3 3 0 5 7 5 7 0 9
5 5 12 -4 7 -3 8 4 4 7 -4 12 -2 12 4 0 6 5 8 10 5 6 -3 10 -2 10 3 0 5 6 9
13 10 6 1 23 3 37 4 26 3 110 44 110 54 0 3 -21 -6 -47 -20 -25 -15 -48 -24
-51 -21 -3 3 0 5 7 5 7 0 9 5 5 12 -4 7 -3 8 4 4 7 -4 12 -2 12 4 0 6 5 8 10
5 6 -3 10 -2 10 3 0 5 6 9 13 10 6 1 23 3 37 4 26 3 110 44 110 54 0 3 -21 -6
-47 -20 -25 -15 -48 -24 -51 -21 -3 3 0 5 7 5 7 0 9 5 5 12 -4 7 -3 8 4 4 7
-4 12 -2 12 4 0 6 5 8 10 5 6 -3 10 -2 10 3 0 5 6 9 13 10 6 1 23 3 37 4 26 3
110 44 110 54 0 3 -21 -6 -47 -20 -25 -15 -48 -24 -51 -21 -3 3 0 5 7 5 7 0 9
5 5 12 -4 7 -3 8 4 4 7 -4 12 -2 12 4 0 6 5 8 10 5 6 -3 10 -2 10 3 0 8 14 12
54 13 10 0 30 8 44 17 16 11 27 13 29 6 2 -6 11 -20 19 -30 13 -16 13 -14 -1
14 -18 37 -22 38 -53 16 -13 -9 -26 -13 -29 -10 -4 3 -1 6 6 6 7 0 9 5 5 12
-4 7 -3 8 4 4 7 -4 12 -3 12 2 0 4 13 8 29 8 17 0 28 -3 25 -8z"/>
<path d="M3967 3322 c-21 -14 -24 -21 -15 -30 9 -9 9 -12 1 -12 -7 0 -15 5
-18 10 -4 7 -25 0 -56 -16 -39 -21 -47 -30 -38 -41 8 -9 8 -13 1 -13 -6 0 -14
5 -17 10 -4 7 -25 0 -56 -16 -39 -21 -47 -30 -38 -41 8 -9 8 -13 1 -13 -6 0
-14 5 -17 10 -4 7 -25 0 -56 -16 -39 -21 -47 -30 -38 -41 8 -9 8 -13 1 -13 -6
0 -14 5 -17 10 -4 7 -25 0 -56 -16 -39 -21 -47 -30 -38 -41 8 -9 8 -13 1 -13
-6 0 -14 5 -17 10 -4 7 -25 0 -56 -16 -39 -21 -47 -30 -38 -41 8 -9 8 -13 1
-13 -6 0 -14 5 -17 10 -4 7 -25 0 -56 -16 -39 -21 -47 -30 -38 -41 8 -9 8 -13
1 -13 -6 0 -14 5 -17 10 -4 7 -25 0 -56 -16 -39 -21 -47 -30 -38 -41 8 -9 8
-13 1 -13 -6 0 -14 5 -17 10 -4 7 -25 0 -56 -16 -39 -21 -47 -30 -38 -41 8 -9
8 -13 1 -13 -6 0 -14 5 -17 10 -4 7 -25 0 -56 -16 -39 -21 -47 -30 -38 -41 8
-9 8 -13 1 -13 -6 0 -14 5 -17 10 -4 7 -25 0 -56 -16 -39 -21 -47 -30 -38 -41
8 -9 8 -13 1 -13 -6 0 -14 5 -17 10 -6 9 -49 -11 -220 -105 -22 -12 -65 -36
-95 -52 -30 -17 -81 -44 -112 -62 -32 -17 -84 -45 -115 -62 -32 -18 -82 -45
-110 -60 -29 -16 -77 -42 -105 -58 -29 -16 -80 -43 -113 -61 -217 -118 -207
-111 -193 -127 7 -9 7 -13 0 -13 -6 0 -14 5 -17 10 -4 7 -25 0 -56 -16 -39
-21 -47 -30 -38 -41 8 -9 8 -13 1 -13 -6 0 -14 5 -17 10 -4 7 -25 0 -56 -16
-39 -21 -47 -30 -38 -41 8 -9 8 -13 1 -13 -6 0 -14 5 -17 10 -4 7 -25 0 -56
-16 -39 -21 -47 -30 -38 -41 8 -9 8 -13 1 -13 -6 0 -14 5 -17 10 -4 7 -25 0
-56 -16 -39 -21 -47 -30 -38 -41 8 -9 8 -13 1 -13 -6 0 -14 5 -17 10 -4 7 -25
0 -56 -16 -39 -21 -47 -30 -38 -41 8 -9 8 -13 1 -13 -6 0 -14 5 -17 10 -4 7
-25 0 -56 -16 -39 -21 -47 -30 -38 -41 13 -15 -2 -18 -17 -3 -16 16 -46 -11
-34 -30 8 -13 12 -13 37 1 15 9 55 31 88 49 33 18 84 46 113 61 28 16 78 43
110 60 31 18 81 45 110 60 28 16 78 43 110 60 31 18 81 45 110 60 91 50 165
91 217 119 28 15 75 41 105 57 223 121 212 114 198 130 -7 9 -7 13 0 13 6 0
14 -5 17 -10 4 -7 25 0 56 16 39 21 47 30 38 41 -8 9 -8 13 -1 13 6 0 14 -5
17 -10 4 -7 25 0 56 16 39 21 47 30 38 41 -8 9 -8 13 -1 13 6 0 14 -5 17 -10
4 -7 25 0 56 16 39 21 47 30 38 41 -8 9 -8 13 -1 13 6 0 14 -5 17 -10 4 -7 25
0 56 16 39 21 47 30 38 41 -8 9 -8 13 -1 13 6 0 14 -5 17 -10 4 -7 25 0 56 16
39 21 47 30 38 41 -8 9 -8 13 -1 13 6 0 14 -5 17 -10 4 -7 25 0 56 16 39 21
47 30 38 41 -8 9 -8 13 -1 13 6 0 14 -5 17 -10 4 -7 25 0 56 16 39 21 47 30
38 41 -8 9 -8 13 -1 13 6 0 14 -5 17 -10 4 -7 25 0 56 16 39 21 47 30 38 41
-8 9 -8 13 -1 13 6 0 14 -5 17 -10 6 -9 49 11 220 105 47 26 140 77 210 115
50 27 116 63 218 119 28 15 84 45 122 66 86 46 89 49 78 69 -8 14 -11 14 -36
-2z m33 -11 c0 -10 -30 -24 -37 -17 -3 3 -2 9 2 15 8 13 35 15 35 2z m-66 -42
c-3 -6 -11 -8 -17 -6 -6 2 -19 -5 -29 -15 -20 -20 -38 -24 -38 -8 0 5 17 18
38 29 37 19 58 19 46 0z m-110 -60 c-3 -6 -11 -8 -17 -6 -6 2 -19 -5 -29 -15
-20 -20 -38 -24 -38 -8 0 5 17 18 38 29 37 19 58 19 46 0z m-110 -60 c-3 -6
-11 -8 -17 -6 -6 2 -19 -5 -29 -15 -20 -20 -38 -24 -38 -8 0 5 17 18 38 29 37
19 58 19 46 0z m-110 -60 c-3 -6 -11 -8 -17 -6 -6 2 -19 -5 -29 -15 -20 -20
-38 -24 -38 -8 0 5 17 18 38 29 37 19 58 19 46 0z m-110 -60 c-3 -6 -11 -8
-17 -6 -6 2 -19 -5 -29 -15 -20 -20 -38 -24 -38 -8 0 5 17 18 38 29 37 19 58
19 46 0z m-110 -60 c-3 -6 -11 -8 -17 -6 -6 2 -19 -5 -29 -15 -20 -20 -38 -24
-38 -8 0 5 17 18 38 29 37 19 58 19 46 0z m-110 -60 c-3 -6 -11 -8 -17 -6 -6
2 -19 -5 -29 -15 -20 -20 -38 -24 -38 -8 0 5 17 18 38 29 37 19 58 19 46 0z
m-144 -69 c0 -12 -40 -33 -48 -25 -4 4 2 13 12 21 23 16 36 18 36 4z m-110
-60 c0 -12 -40 -33 -48 -25 -4 4 2 13 12 21 23 16 36 18 36 4z m-110 -60 c0
-12 -40 -33 -48 -25 -4 4 2 13 12 21 23 16 36 18 36 4z m-110 -60 c0 -14 -78
-52 -85 -41 -6 10 13 26 21 18 3 -3 14 3 25 14 21 21 39 25 39 9z m-110 -60
c0 -14 -78 -52 -85 -41 -6 10 13 26 21 18 3 -3 14 3 25 14 21 21 39 25 39 9z
m-110 -60 c0 -14 -78 -52 -85 -41 -6 10 13 26 21 18 3 -3 14 3 25 14 21 21 39
25 39 9z m-110 -60 c0 -14 -78 -52 -85 -41 -6 10 13 26 21 18 3 -3 14 3 25 14
21 21 39 25 39 9z m-110 -60 c0 -14 -78 -52 -85 -41 -6 10 13 26 21 18 3 -3
14 3 25 14 21 21 39 25 39 9z m-110 -59 c0 -13 -70 -52 -81 -46 -5 4 -9 1 -9
-5 0 -6 -4 -8 -10 -5 -5 3 -10 2 -10 -3 0 -14 -69 -53 -81 -47 -5 4 -9 2 -9
-2 0 -5 -10 -9 -22 -10 -18 -2 -16 1 11 18 18 11 36 17 42 14 5 -4 9 -2 9 4 0
11 77 56 95 56 6 0 18 8 28 18 18 18 37 23 37 8z m-259 -152 c-18 -11 -36 -17
-42 -14 -5 4 -9 2 -9 -4 0 -11 -77 -56 -95 -56 -5 0 -18 -8 -27 -17 -19 -19
-38 -24 -38 -9 0 13 70 52 81 46 5 -4 9 -1 9 5 0 6 5 8 10 5 6 -3 10 -2 10 3
0 14 69 53 81 47 5 -4 9 -2 9 2 0 5 10 9 22 10 18 2 16 -1 -11 -18z m-237
-130 c-3 -6 -11 -8 -17 -6 -6 2 -19 -5 -29 -15 -20 -20 -38 -24 -38 -8 0 5 17
18 38 29 37 19 58 19 46 0z m-110 -60 c-3 -6 -11 -8 -17 -6 -6 2 -19 -5 -29
-15 -20 -20 -38 -24 -38 -8 0 5 17 18 38 29 37 19 58 19 46 0z m-110 -60 c-3
-6 -11 -8 -17 -6 -6 2 -19 -5 -29 -15 -20 -20 -38 -24 -38 -8 0 5 17 18 38 29
37 19 58 19 46 0z m-110 -60 c-3 -6 -11 -8 -17 -6 -6 2 -19 -5 -29 -15 -20
-20 -38 -24 -38 -8 0 5 17 18 38 29 37 19 58 19 46 0z m-110 -60 c-3 -6 -11
-8 -17 -6 -6 2 -19 -5 -29 -15 -20 -20 -38 -24 -38 -8 0 5 17 18 38 29 37 19
58 19 46 0z m-110 -60 c-3 -6 -11 -8 -17 -6 -6 2 -19 -5 -29 -15 -20 -20 -38
-24 -38 -8 0 5 17 18 38 29 37 19 58 19 46 0z m-112 -61 c-6 -6 -16 -7 -22 -3
-9 6 -9 9 1 16 17 10 34 0 21 -13z"/>
<path d="M1060 1766 c-14 -8 -28 -12 -31 -10 -13 7 -2 -47 11 -59 10 -9 10 -7
0 13 -11 21 -10 26 4 35 50 30 63 46 16 21z"/>
</g>
</svg>
